<?xml version="1.0" encoding="UTF-8" standalone="no"?>
<!-- Created with Inkscape (http://www.inkscape.org/) -->

<svg
   xmlns:dc="http://purl.org/dc/elements/1.1/"
   xmlns:cc="http://creativecommons.org/ns#"
   xmlns:rdf="http://www.w3.org/1999/02/22-rdf-syntax-ns#"
   xmlns:svg="http://www.w3.org/2000/svg"
   xmlns="http://www.w3.org/2000/svg"
   xmlns:sodipodi="http://sodipodi.sourceforge.net/DTD/sodipodi-0.dtd"
   xmlns:inkscape="http://www.inkscape.org/namespaces/inkscape"
   id="svg2985"
   version="1.1"
   inkscape:version="0.48.5 r10040"
   width="1000"
   height="281.08328"
   xml:space="preserve"
   sodipodi:docname="2016-Standards-of-Care.pdf"><metadata
     id="metadata2991"><rdf:RDF><cc:Work
         rdf:about=""><dc:format>image/svg+xml</dc:format><dc:type
           rdf:resource="http://purl.org/dc/dcmitype/StillImage" /><dc:title></dc:title></cc:Work></rdf:RDF></metadata><defs
     id="defs2989"><clipPath
       clipPathUnits="userSpaceOnUse"
       id="clipPath2999"><path
         d="M 0,783 594,783 594,0.015 0,0.015 0,783 z"
         id="path3001"
         inkscape:connector-curvature="0" /></clipPath><clipPath
       clipPathUnits="userSpaceOnUse"
       id="clipPath3009"><path
         d="m 594,6.1e-5 -594,0 0,210.929939 594,0 L 594,6.1e-5 m 0,470.749939 -70.789,0 0,44.18 -91.8,0 0,-44.18 -431.411,0 0,181.75 594,0 0,-181.75"
         id="path3011"
         inkscape:connector-curvature="0" /></clipPath><clipPath
       clipPathUnits="userSpaceOnUse"
       id="clipPath3015"><path
         d="m 0,670.5 594,0 0,-670.485 -594,0 0,670.485 z"
         id="path3017"
         inkscape:connector-curvature="0" /></clipPath><clipPath
       clipPathUnits="userSpaceOnUse"
       id="clipPath3027"><path
         d="m 594,210.93 -594,0 0,12.32 594,0 0,-12.32"
         id="path3029"
         inkscape:connector-curvature="0" /></clipPath><clipPath
       clipPathUnits="userSpaceOnUse"
       id="clipPath3039"><path
         d="m 279.755,471.214 -280.291,0 0,-213.145 280.291,0 0,213.145 z"
         id="path3041"
         inkscape:connector-curvature="0" /></clipPath><clipPath
       clipPathUnits="userSpaceOnUse"
       id="clipPath3045"><path
         d="m 594,223.25 -594,0 0,247.5 431.411,0 0,-47.62 91.8,0 0,47.62 70.789,0 0,-247.5"
         id="path3047"
         inkscape:connector-curvature="0" /></clipPath><clipPath
       clipPathUnits="userSpaceOnUse"
       id="clipPath3057"><path
         d="m 454.668,471.214 -175.391,0 0,-248.51 175.391,0 0,248.51 z"
         id="path3059"
         inkscape:connector-curvature="0" /></clipPath><clipPath
       clipPathUnits="userSpaceOnUse"
       id="clipPath3063"><path
         d="m 594,223.25 -594,0 0,247.5 431.411,0 0,-47.62 91.8,0 0,47.62 70.789,0 0,-247.5"
         id="path3065"
         inkscape:connector-curvature="0" /></clipPath><clipPath
       clipPathUnits="userSpaceOnUse"
       id="clipPath3075"><path
         d="m 594.455,471.214 -105.378,0 0,-248.51 105.378,0 0,248.51 z"
         id="path3077"
         inkscape:connector-curvature="0" /></clipPath><clipPath
       clipPathUnits="userSpaceOnUse"
       id="clipPath3081"><path
         d="m 594,223.25 -594,0 0,247.5 431.411,0 0,-47.62 91.8,0 0,47.62 70.789,0 0,-247.5"
         id="path3083"
         inkscape:connector-curvature="0" /></clipPath><clipPath
       clipPathUnits="userSpaceOnUse"
       id="clipPath3093"><path
         d="m 489.555,435.849 -35.365,0 0,-213.145 35.365,0 0,213.145 z"
         id="path3095"
         inkscape:connector-curvature="0" /></clipPath><clipPath
       clipPathUnits="userSpaceOnUse"
       id="clipPath3099"><path
         d="m 594,223.25 -594,0 0,247.5 431.411,0 0,-47.62 91.8,0 0,47.62 70.789,0 0,-247.5"
         id="path3101"
         inkscape:connector-curvature="0" /></clipPath><clipPath
       clipPathUnits="userSpaceOnUse"
       id="clipPath3111"><path
         d="m 279.755,258.547 -280.291,0 0,-35.843 280.291,0 0,35.843 z"
         id="path3113"
         inkscape:connector-curvature="0" /></clipPath><clipPath
       clipPathUnits="userSpaceOnUse"
       id="clipPath3117"><path
         d="m 594,223.25 -594,0 0,247.5 431.411,0 0,-47.62 91.8,0 0,47.62 70.789,0 0,-247.5"
         id="path3119"
         inkscape:connector-curvature="0" /></clipPath><clipPath
       clipPathUnits="userSpaceOnUse"
       id="clipPath3173"><path
         d="m 448.511,76.242 0,-35.742 127.489,0 0,35.742 -127.489,0"
         id="path3175"
         inkscape:connector-curvature="0" /></clipPath><clipPath
       clipPathUnits="userSpaceOnUse"
       id="clipPath3269"><path
         d="m 594,652.5 -594,0 0,18 594,0 0,-18"
         id="path3271"
         inkscape:connector-curvature="0" /></clipPath><clipPath
       clipPathUnits="userSpaceOnUse"
       id="clipPath3361"><path
         d="m 523.211,470.75 -91.8,0 0,44.18 91.8,0 0,-44.18"
         id="path3363"
         inkscape:connector-curvature="0" /></clipPath><clipPath
       clipPathUnits="userSpaceOnUse"
       id="clipPath3373"><path
         d="m 523.211,423.13 -91.8,0 0,47.62 91.8,0 0,-47.62"
         id="path3375"
         inkscape:connector-curvature="0" /></clipPath></defs><sodipodi:namedview
     pagecolor="#ffffff"
     bordercolor="#666666"
     borderopacity="1"
     objecttolerance="10"
     gridtolerance="10"
     guidetolerance="10"
     inkscape:pageopacity="0"
     inkscape:pageshadow="2"
     inkscape:window-width="1057"
     inkscape:window-height="1026"
     id="namedview2987"
     showgrid="false"
     fit-margin-left="0.5"
     fit-margin-bottom="0.5"
     fit-margin-top="0.5"
     fit-margin-right="0.5"
     inkscape:zoom="0.39041347"
     inkscape:cx="681.24592"
     inkscape:cy="158.20546"
     inkscape:window-x="857"
     inkscape:window-y="0"
     inkscape:window-maximized="0"
     inkscape:current-layer="g2993" /><g
     id="g2993"
     inkscape:groupmode="layer"
     inkscape:label="2016-Standards-of-Care"
     transform="matrix(1.25,0,0,-1.25,-560.14,331.20703)"><g
       id="g3125"
       transform="matrix(6.2688253,0,0,6.2688253,718.29717,52.9865)"
       style="fill:#c41230;fill-opacity:1"><path
         d="m 0,0 0,0.649 0.433,0 C 0.654,0.649 0.889,0.601 0.889,0.341 0.889,0.019 0.649,0 0.38,0 L 0,0 z m 0,-0.27 0.366,0 0.552,-0.908 0.356,0 -0.596,0.923 c 0.308,0.038 0.543,0.202 0.543,0.577 0,0.413 -0.245,0.596 -0.74,0.596 l -0.798,0 0,-2.096 0.317,0 0,0.908 z m -1.096,0.145 c 0,0.86 0.649,1.509 1.481,1.509 0.822,0 1.471,-0.649 1.471,-1.509 0,-0.875 -0.649,-1.519 -1.471,-1.519 -0.832,0 -1.481,0.644 -1.481,1.519 z m 1.481,-1.823 c 0.99,0 1.836,0.77 1.836,1.823 0,1.043 -0.846,1.813 -1.836,1.813 -1,0 -1.846,-0.77 -1.846,-1.813 0,-1.053 0.846,-1.823 1.846,-1.823"
         style="fill:#c41230;fill-opacity:1;fill-rule:evenodd;stroke:none"
         id="path3127"
         inkscape:connector-curvature="0" /></g><g
       id="g3129"
       transform="matrix(6.2688253,0,0,6.2688253,549.49651,215.89446)"
       style="fill:#c41230;fill-opacity:1"><path
         d="m 0,0 15.949,-27.863 8.869,0 L 4.354,7.58 0,0"
         style="fill:#c41230;fill-opacity:1;fill-rule:nonzero;stroke:none"
         id="path3131"
         inkscape:connector-curvature="0" /></g><g
       id="g3133"
       transform="matrix(6.2688253,0,0,6.2688253,521.44351,168.50214)"
       style="fill:#c41230;fill-opacity:1"><path
         d="m 0,0 -11.634,-20.303 22.814,0 4.675,8.041 -13.998,0 L 8.842,0 0,0"
         style="fill:#c41230;fill-opacity:1;fill-rule:nonzero;stroke:none"
         id="path3135"
         inkscape:connector-curvature="0" /></g><g
       id="g3137"
       transform="matrix(6.2688253,0,0,6.2688253,878.34654,233.07104)"
       style="fill:#231f20;fill-opacity:1"><path
         d="m 0,0 c 0,1.646 -1.14,2.505 -2.603,2.505 -1.196,0 -1.745,-0.83 -1.998,-1.196 -0.507,0.802 -0.999,1.196 -2.083,1.196 -1.322,0 -1.871,-0.802 -2.125,-1.295 l -0.028,0 0,1.098 -1.886,0 0,-7.486 1.97,0 0,4.559 c 0,0.816 0.296,1.464 1.225,1.464 1.182,0 1.182,-0.887 1.182,-1.52 l 0,-4.503 1.97,0 0,4.489 c 0,0.886 0.352,1.534 1.336,1.534 0.578,0 1.07,-0.366 1.07,-1.478 l 0,-4.545 1.97,0 L 0,0"
         style="fill:#231f20;fill-opacity:1;fill-rule:nonzero;stroke:none"
         id="path3139"
         inkscape:connector-curvature="0" /></g><g
       id="g3141"
       transform="matrix(6.2688253,0,0,6.2688253,934.10148,200.61107)"
       style="fill:#231f20;fill-opacity:1"><path
         d="m 0,0 1.97,0 0,3.898 c 0,0.83 0.281,1.787 1.815,1.787 0.183,0 0.395,0 0.563,-0.028 l 0,1.998 C 4.222,7.669 4.094,7.683 3.968,7.683 2.772,7.683 2.321,6.951 1.914,6.192 l -0.028,0 0,1.294 L 0,7.486 0,0"
         style="fill:#231f20;fill-opacity:1;fill-rule:nonzero;stroke:none"
         id="path3143"
         inkscape:connector-curvature="0" /></g><g
       id="g3145"
       transform="matrix(6.2688253,0,0,6.2688253,978.95492,264.56562)"
       style="fill:#231f20;fill-opacity:1"><path
         d="m 0,0 -1.9698,0 0,-1.8292 1.9698,0 L 0,0 z m 0,-2.716 -1.9698,0 0,-7.4859 1.9698,0 0,7.4859 z"
         style="fill:#231f20;fill-opacity:1;fill-rule:nonzero;stroke:none"
         id="path3147"
         inkscape:connector-curvature="0" /></g><g
       id="g3149"
       transform="matrix(6.2688253,0,0,6.2688253,1016.3986,217.72496)"
       style="fill:#231f20;fill-opacity:1"><path
         d="m 0,0 c 0,-0.352 -0.338,-1.309 -1.337,-1.309 -1.491,0 -1.52,1.619 -1.52,2.435 0,0.929 0.324,2.167 1.563,2.167 0.914,0.056 1.224,-0.718 1.308,-1.21 l 1.998,0 c -0.183,2.336 -2.125,2.87 -3.306,2.87 -2.533,0 -3.589,-1.731 -3.589,-4.151 0,-1.576 0.648,-3.729 3.462,-3.729 2.744,0 3.349,2.153 3.419,2.927 L 0,0"
         style="fill:#231f20;fill-opacity:1;fill-rule:nonzero;stroke:none"
         id="path3151"
         inkscape:connector-curvature="0" /></g><g
       id="g3153"
       transform="matrix(6.2688253,0,0,6.2688253,1061.2521,217.46167)"
       style="fill:#231f20;fill-opacity:1"><path
         d="m 0,0 c 0,-0.915 -0.886,-1.477 -1.759,-1.477 -0.38,0 -0.914,0.21 -0.914,0.9 0,0.816 0.604,0.999 1.336,1.126 C -0.52,0.676 -0.197,0.802 0,0.957 L 0,0 z m 1.928,2.828 c 0,1.844 -1.928,2.167 -2.983,2.167 -1.534,0 -3.124,-0.323 -3.349,-2.617 l 1.9,0 c 0.056,0.436 0.225,1.041 1.209,1.041 C -0.788,3.419 0,3.377 0,2.547 0,2.125 -0.38,1.998 -0.689,1.956 L -2.462,1.689 C -3.715,1.506 -4.643,0.76 -4.643,-0.704 c 0,-1.547 1.153,-2.181 2.279,-2.181 1.337,0 1.97,0.619 2.42,1.084 0.043,-0.422 0.071,-0.535 0.183,-0.887 l 2.125,0 0,0.296 c -0.239,0.084 -0.436,0.281 -0.436,1.168 l 0,4.052"
         style="fill:#231f20;fill-opacity:1;fill-rule:nonzero;stroke:none"
         id="path3155"
         inkscape:connector-curvature="0" /></g><g
       id="g3157"
       transform="matrix(6.2688253,0,0,6.2688253,1124.5484,233.07104)"
       style="fill:#231f20;fill-opacity:1"><path
         d="m 0,0 c 0,1.646 -1.14,2.505 -2.603,2.505 -1.421,0 -1.985,-0.845 -2.252,-1.295 l -0.028,0 0,1.098 -1.885,0 0,-7.486 1.97,0 0,4.292 c 0,1.139 0.675,1.731 1.548,1.731 1.252,0 1.28,-0.929 1.28,-1.478 l 0,-4.545 1.97,0 L 0,0"
         style="fill:#231f20;fill-opacity:1;fill-rule:nonzero;stroke:none"
         id="path3159"
         inkscape:connector-curvature="0" /></g><g
       id="g3161"
       transform="matrix(6.2688253,0,0,6.2688253,775.79483,249.65836)"
       style="fill:#231f20;fill-opacity:1"><path
         d="m 0,0 0.028,0 1.253,-3.996 -2.575,0 L 0,0 z m -1.857,-5.741 3.729,0 0.647,-2.083 2.294,0 -3.561,10.104 -2.434,0 -3.602,-10.104 2.223,0 0.704,2.083"
         style="fill:#231f20;fill-opacity:1;fill-rule:nonzero;stroke:none"
         id="path3163"
         inkscape:connector-curvature="0" /></g><g
       id="g3165"
       transform="matrix(6.2688253,0,0,6.2688253,896.38822,228.75182)"
       style="fill:#231f20;fill-opacity:1"><path
         d="M 0,0 C 0.112,0.985 0.605,1.576 1.533,1.576 2.167,1.576 2.941,1.21 3.053,0 L 0,0 z M 2.969,-2.294 C 2.814,-2.828 2.251,-3.11 1.703,-3.11 0.112,-3.11 0,-1.843 -0.056,-1.281 l 5.136,0 0,0.352 c 0,3.42 -2.041,4.123 -3.519,4.123 -3.278,0 -3.588,-2.884 -3.588,-3.785 0,-3.082 1.619,-4.095 3.73,-4.095 1.28,0 2.772,0.591 3.293,2.392 l -2.027,0"
         style="fill:#231f20;fill-opacity:1;fill-rule:nonzero;stroke:none"
         id="path3167"
         inkscape:connector-curvature="0" /></g><g
       id="g3169"
       style="fill:#231f20;fill-opacity:1"
       transform="matrix(6.2688253,0,0,6.2688253,-2363.1314,-213.38216)"><g
         id="g3171"
         clip-path="url(#clipPath3173)"
         style="fill:#231f20;fill-opacity:1"><g
           id="g3177"
           transform="translate(573.779,42.613)"
           style="fill:#231f20;fill-opacity:1"><path
             d="m 0,0 0,0.649 0.433,0 C 0.654,0.649 0.889,0.601 0.889,0.341 0.889,0.019 0.649,0 0.38,0 L 0,0 z m 0,-0.27 0.365,0 0.553,-0.908 0.356,0 -0.596,0.922 c 0.307,0.039 0.543,0.203 0.543,0.578 0,0.413 -0.245,0.596 -0.74,0.596 l -0.798,0 0,-2.096 0.317,0 0,0.908 z m -1.096,0.145 c 0,0.86 0.649,1.509 1.481,1.509 0.822,0 1.471,-0.649 1.471,-1.509 0,-0.876 -0.649,-1.519 -1.471,-1.519 -0.832,0 -1.481,0.643 -1.481,1.519 z m 1.481,-1.823 c 0.99,0 1.836,0.77 1.836,1.823 0,1.043 -0.846,1.813 -1.836,1.813 -1.001,0 -1.847,-0.77 -1.847,-1.813 0,-1.053 0.846,-1.823 1.847,-1.823"
             style="fill:#231f20;fill-opacity:1;fill-rule:nonzero;stroke:none"
             id="path3179"
             inkscape:connector-curvature="0" /></g></g></g><g
       id="g3181"
       transform="matrix(6.2688253,0,0,6.2688253,1215.7723,74.200205)"
       style="fill:#231f20;fill-opacity:1"><path
         d="m 0,0 c 0,1.646 -1.14,2.506 -2.603,2.506 -1.421,0 -1.985,-0.845 -2.252,-1.296 l -0.028,0 0,1.099 -1.886,0 0,-7.488 1.971,0 0,4.293 c 0,1.139 0.675,1.731 1.548,1.731 1.252,0 1.28,-0.929 1.28,-1.478 l 0,-4.546 1.97,0 L 0,0"
         style="fill:#231f20;fill-opacity:1;fill-rule:nonzero;stroke:none"
         id="path3183"
         inkscape:connector-curvature="0" /></g><g
       id="g3185"
       transform="matrix(6.2688253,0,0,6.2688253,775.79483,90.787517)"
       style="fill:#231f20;fill-opacity:1"><path
         d="m 0,0 0.028,0 1.253,-3.996 -2.575,0 L 0,0 z m -1.857,-5.741 3.729,0 0.647,-2.084 2.294,0 -3.561,10.104 -2.434,0 -3.602,-10.104 2.223,0 0.704,2.084"
         style="fill:#231f20;fill-opacity:1;fill-rule:nonzero;stroke:none"
         id="path3187"
         inkscape:connector-curvature="0" /></g><g
       id="g3189"
       transform="matrix(6.2688253,0,0,6.2688253,849.85473,74.375732)"
       style="fill:#231f20;fill-opacity:1"><path
         d="m 0,0 c -0.155,2.111 -1.9,2.477 -3.363,2.477 -2.336,0 -3.026,-1.407 -3.026,-2.505 0,-2.8 4.644,-1.857 4.644,-3.109 0,-0.282 -0.239,-0.775 -1.253,-0.775 -1.238,0 -1.632,0.464 -1.632,1.098 l -2.026,0 c 0.056,-1.998 1.899,-2.59 3.603,-2.59 1.167,0 3.278,0.394 3.278,2.576 0,2.758 -4.686,1.9 -4.686,3.081 0,0.325 0.141,0.733 1.21,0.733 1.07,0 1.239,-0.507 1.323,-0.986 L 0,0"
         style="fill:#231f20;fill-opacity:1;fill-rule:nonzero;stroke:none"
         id="path3191"
         inkscape:connector-curvature="0" /></g><g
       id="g3193"
       transform="matrix(6.2688253,0,0,6.2688253,896.65151,74.375732)"
       style="fill:#231f20;fill-opacity:1"><path
         d="m 0,0 c -0.155,2.111 -1.9,2.477 -3.363,2.477 -2.336,0 -3.025,-1.407 -3.025,-2.505 0,-2.8 4.643,-1.857 4.643,-3.109 0,-0.282 -0.24,-0.775 -1.253,-0.775 -1.238,0 -1.632,0.464 -1.632,1.098 l -2.026,0 c 0.056,-1.998 1.9,-2.59 3.602,-2.59 1.168,0 3.279,0.394 3.279,2.576 0,2.758 -4.686,1.9 -4.686,3.081 0,0.325 0.141,0.733 1.21,0.733 1.069,0 1.239,-0.507 1.323,-0.986 L 0,0"
         style="fill:#231f20;fill-opacity:1;fill-rule:nonzero;stroke:none"
         id="path3195"
         inkscape:connector-curvature="0" /></g><g
       id="g3197"
       transform="matrix(6.2688253,0,0,6.2688253,937.36127,65.210709)"
       style="fill:#231f20;fill-opacity:1"><path
         d="m 0,0 c 0,-0.957 -0.281,-2.28 -1.801,-2.28 -1.52,0 -1.801,1.323 -1.801,2.28 0,0.956 0.281,2.279 1.801,2.279 C -0.281,2.279 0,0.956 0,0 z m 2.026,0 c 0,2.701 -1.815,3.94 -3.827,3.94 -2.012,0 -3.828,-1.239 -3.828,-3.94 0,-2.702 1.816,-3.941 3.828,-3.941 2.012,0 3.827,1.239 3.827,3.941"
         style="fill:#231f20;fill-opacity:1;fill-rule:nonzero;stroke:none"
         id="path3199"
         inkscape:connector-curvature="0" /></g><g
       id="g3201"
       transform="matrix(6.2688253,0,0,6.2688253,984.33357,58.85412)"
       style="fill:#231f20;fill-opacity:1"><path
         d="m 0,0 c 0,-0.352 -0.338,-1.309 -1.337,-1.309 -1.491,0 -1.52,1.618 -1.52,2.435 0,0.928 0.324,2.167 1.562,2.167 0.915,0.056 1.224,-0.718 1.309,-1.211 l 1.998,0 c -0.183,2.336 -2.125,2.872 -3.307,2.872 -2.532,0 -3.588,-1.731 -3.588,-4.152 0,-1.577 0.647,-3.729 3.461,-3.729 2.745,0 3.349,2.152 3.42,2.927 L 0,0"
         style="fill:#231f20;fill-opacity:1;fill-rule:nonzero;stroke:none"
         id="path3203"
         inkscape:connector-curvature="0" /></g><g
       id="g3205"
       transform="matrix(6.2688253,0,0,6.2688253,1015.9535,105.69478)"
       style="fill:#231f20;fill-opacity:1"><path
         d="m 0,0 -1.9698,0 0,-1.8293 1.9698,0 L 0,0 z m 0,-2.715 -1.9698,0 0,-7.4871 1.9698,0 0,7.4871 z"
         style="fill:#231f20;fill-opacity:1;fill-rule:nonzero;stroke:none"
         id="path3207"
         inkscape:connector-curvature="0" /></g><g
       id="g3209"
       transform="matrix(6.2688253,0,0,6.2688253,1051.4539,58.59083)"
       style="fill:#231f20;fill-opacity:1"><path
         d="m 0,0 c 0,-0.915 -0.886,-1.478 -1.759,-1.478 -0.38,0 -0.915,0.211 -0.915,0.901 0,0.816 0.606,0.999 1.338,1.125 C -0.521,0.675 -0.197,0.802 0,0.956 L 0,0 z m 1.928,2.828 c 0,1.843 -1.928,2.168 -2.983,2.168 -1.534,0 -3.125,-0.325 -3.35,-2.618 l 1.9,0 C -2.449,2.814 -2.28,3.419 -1.294,3.419 -0.788,3.419 0,3.377 0,2.546 0,2.125 -0.38,1.998 -0.689,1.956 L -2.462,1.689 c -1.253,-0.183 -2.181,-0.93 -2.181,-2.393 0,-1.547 1.153,-2.181 2.279,-2.181 1.337,0 1.97,0.62 2.42,1.084 0.042,-0.422 0.071,-0.535 0.183,-0.887 l 2.125,0 0,0.296 c -0.239,0.085 -0.436,0.281 -0.436,1.167 l 0,4.053"
         style="fill:#231f20;fill-opacity:1;fill-rule:nonzero;stroke:none"
         id="path3211"
         inkscape:connector-curvature="0" /></g><g
       id="g3213"
       transform="matrix(6.2688253,0,0,6.2688253,1086.1706,101.37556)"
       style="fill:#231f20;fill-opacity:1"><path
         d="m 0,0 -1.97,0 0,-2.026 -1.013,0 0,-1.408 1.013,0 0,-4.545 c 0,-0.971 0.31,-1.619 2.012,-1.619 l 0.254,0 c 0.309,0 0.618,0.014 0.929,0.028 l 0,1.492 C 1.083,-8.092 0.943,-8.106 0.816,-8.106 0.014,-8.106 0,-7.937 0,-7.501 l 0,4.067 1.225,0 0,1.408 L 0,-2.026 0,0"
         style="fill:#231f20;fill-opacity:1;fill-rule:nonzero;stroke:none"
         id="path3215"
         inkscape:connector-curvature="0" /></g><g
       id="g3217"
       transform="matrix(6.2688253,0,0,6.2688253,1112.1361,105.69478)"
       style="fill:#231f20;fill-opacity:1"><path
         d="m 0,0 -1.9698,0 0,-1.8293 1.9698,0 L 0,0 z m 0,-2.715 -1.9698,0 0,-7.4871 1.9698,0 0,7.4871 z"
         style="fill:#231f20;fill-opacity:1;fill-rule:nonzero;stroke:none"
         id="path3219"
         inkscape:connector-curvature="0" /></g><g
       id="g3221"
       transform="matrix(6.2688253,0,0,6.2688253,1154.2501,65.210709)"
       style="fill:#231f20;fill-opacity:1"><path
         d="m 0,0 c 0,-0.957 -0.281,-2.28 -1.801,-2.28 -1.52,0 -1.801,1.323 -1.801,2.28 0,0.956 0.281,2.279 1.801,2.279 C -0.281,2.279 0,0.956 0,0 z m 2.026,0 c 0,2.701 -1.815,3.94 -3.827,3.94 -2.013,0 -3.828,-1.239 -3.828,-3.94 0,-2.702 1.815,-3.941 3.828,-3.941 2.012,0 3.827,1.239 3.827,3.941"
         style="fill:#231f20;fill-opacity:1;fill-rule:nonzero;stroke:none"
         id="path3223"
         inkscape:connector-curvature="0" /></g><g
       id="g3225"
       transform="matrix(6.2688253,0,0,6.2688253,765.35097,173.57362)"
       style="fill:#231f20;fill-opacity:1"><path
         d="m 0,0 2.026,0 c 0.901,0 2.322,-0.239 2.322,-3.222 0,-1.661 -0.577,-3.392 -2.293,-3.392 L 0,-6.614 0,0 z m -2.068,-8.359 4.376,0 c 3.335,0 4.193,3.124 4.193,5.291 0,1.914 -0.703,4.813 -4.109,4.813 l -4.46,0 0,-10.104"
         style="fill:#231f20;fill-opacity:1;fill-rule:nonzero;stroke:none"
         id="path3227"
         inkscape:connector-curvature="0" /></g><g
       id="g3229"
       transform="matrix(6.2688253,0,0,6.2688253,825.55677,185.13334)"
       style="fill:#231f20;fill-opacity:1"><path
         d="m 0,0 -1.9698,0 0,-1.8297 1.9698,0 L 0,0 z m 0,-2.716 -1.9698,0 0,-7.4863 1.9698,0 0,7.4863 z"
         style="fill:#231f20;fill-opacity:1;fill-rule:nonzero;stroke:none"
         id="path3231"
         inkscape:connector-curvature="0" /></g><g
       id="g3233"
       transform="matrix(6.2688253,0,0,6.2688253,893.91831,184.51272)"
       style="fill:#231f20;fill-opacity:1"><path
         d="m 0,0 -1.97,0 0,-10.103 1.928,0 0,0.942 0.028,0 c 0.478,-0.844 1.351,-1.139 2.167,-1.139 2.223,0 3.152,1.97 3.152,4.024 0,2.589 -1.463,3.856 -3.11,3.856 -1.266,0 -1.857,-0.69 -2.167,-1.168 L 0,-3.588 0,0 z m 3.278,-6.417 c 0,-0.886 -0.351,-2.265 -1.618,-2.265 -1.252,0 -1.744,1.041 -1.744,2.153 0,1.196 0.337,2.406 1.688,2.406 1.253,0 1.674,-1.111 1.674,-2.294"
         style="fill:#231f20;fill-opacity:1;fill-rule:nonzero;stroke:none"
         id="path3235"
         inkscape:connector-curvature="0" /></g><g
       id="g3237"
       transform="matrix(6.2688253,0,0,6.2688253,994.21324,180.80785)"
       style="fill:#231f20;fill-opacity:1"><path
         d="m 0,0 -1.97,0 0,-2.026 -1.013,0 0,-1.408 1.013,0 0,-4.545 c 0,-0.971 0.31,-1.618 2.013,-1.618 l 0.253,0 c 0.309,0 0.619,0.014 0.929,0.028 l 0,1.492 C 1.084,-8.091 0.943,-8.105 0.817,-8.105 0.014,-8.105 0,-7.937 0,-7.5 l 0,4.066 1.225,0 0,1.408 L 0,-2.026 0,0"
         style="fill:#231f20;fill-opacity:1;fill-rule:nonzero;stroke:none"
         id="path3239"
         inkscape:connector-curvature="0" /></g><g
       id="g3241"
       transform="matrix(6.2688253,0,0,6.2688253,1016.4738,149.31954)"
       style="fill:#231f20;fill-opacity:1"><path
         d="M 0,0 C 0.113,0.985 0.605,1.576 1.534,1.576 2.167,1.576 2.941,1.21 3.053,0 L 0,0 z M 2.969,-2.294 C 2.815,-2.829 2.252,-3.11 1.703,-3.11 0.113,-3.11 0,-1.843 -0.056,-1.281 l 5.136,0 0,0.352 c 0,3.42 -2.04,4.123 -3.517,4.123 -3.28,0 -3.589,-2.884 -3.589,-3.785 0,-3.082 1.619,-4.095 3.729,-4.095 1.28,0 2.772,0.591 3.293,2.392 l -2.027,0"
         style="fill:#231f20;fill-opacity:1;fill-rule:nonzero;stroke:none"
         id="path3243"
         inkscape:connector-curvature="0" /></g><g
       id="g3245"
       transform="matrix(6.2688253,0,0,6.2688253,861.06339,138.02312)"
       style="fill:#231f20;fill-opacity:1"><path
         d="m 0,0 c 0,-0.915 -0.886,-1.478 -1.76,-1.478 -0.379,0 -0.914,0.212 -0.914,0.901 0,0.816 0.605,0.999 1.337,1.126 0.816,0.126 1.14,0.253 1.337,0.408 L 0,0 z M 1.928,2.828 C 1.928,4.672 0,4.995 -1.056,4.995 -2.59,4.995 -4.18,4.672 -4.405,2.378 l 1.9,0 c 0.056,0.436 0.225,1.041 1.21,1.041 C -0.788,3.419 0,3.377 0,2.547 0,2.125 -0.38,1.998 -0.689,1.956 L -2.463,1.689 C -3.715,1.506 -4.644,0.76 -4.644,-0.704 c 0,-1.547 1.154,-2.181 2.279,-2.181 1.337,0 1.971,0.62 2.421,1.084 0.042,-0.422 0.071,-0.535 0.183,-0.887 l 2.125,0 0,0.296 c -0.239,0.084 -0.436,0.281 -0.436,1.168 l 0,4.052"
         style="fill:#231f20;fill-opacity:1;fill-rule:nonzero;stroke:none"
         id="path3247"
         inkscape:connector-curvature="0" /></g><g
       id="g3249"
       transform="matrix(6.2688253,0,0,6.2688253,942.56439,149.31954)"
       style="fill:#231f20;fill-opacity:1"><path
         d="M 0,0 C 0.113,0.985 0.605,1.576 1.534,1.576 2.167,1.576 2.941,1.21 3.053,0 L 0,0 z M 2.969,-2.294 C 2.814,-2.829 2.251,-3.11 1.703,-3.11 0.113,-3.11 0,-1.843 -0.056,-1.281 l 5.136,0 0,0.352 c 0,3.42 -2.041,4.123 -3.518,4.123 -3.279,0 -3.588,-2.884 -3.588,-3.785 0,-3.082 1.617,-4.095 3.729,-4.095 1.28,0 2.772,0.591 3.292,2.392 l -2.026,0"
         style="fill:#231f20;fill-opacity:1;fill-rule:nonzero;stroke:none"
         id="path3251"
         inkscape:connector-curvature="0" /></g><g
       id="g3253"
       transform="matrix(6.2688253,0,0,6.2688253,1092.9159,153.81429)"
       style="fill:#231f20;fill-opacity:1"><path
         d="m 0,0 c -0.155,2.111 -1.9,2.476 -3.364,2.476 -2.335,0 -3.025,-1.407 -3.025,-2.504 0,-2.801 4.644,-1.858 4.644,-3.11 0,-0.282 -0.239,-0.774 -1.252,-0.774 -1.239,0 -1.633,0.464 -1.633,1.098 l -2.026,0 c 0.057,-1.999 1.9,-2.59 3.602,-2.59 1.168,0 3.279,0.394 3.279,2.575 0,2.759 -4.686,1.9 -4.686,3.082 0,0.324 0.14,0.732 1.21,0.732 1.07,0 1.239,-0.507 1.323,-0.985 L 0,0"
         style="fill:#231f20;fill-opacity:1;fill-rule:nonzero;stroke:none"
         id="path3255"
         inkscape:connector-curvature="0" /></g></g></svg>